<?xml version="1.0" encoding="UTF-8"?>
<svg id="Camada_1" xmlns="http://www.w3.org/2000/svg" version="1.1" viewBox="0 0 1124 924.5">
  <!-- Generator: Adobe Illustrator 29.8.2, SVG Export Plug-In . SVG Version: 2.1.1 Build 3)  -->
  <path d="M499,0"/>
  <path d="M620.2,43C576.2,27,502,.2,499,.2h-.5l-120.8,48.3h0l4.9,2.4,118.6,50.8,2.6,1.1,2.4-1.2,114.5-54.2,5-2.4-5.6-2.1h0ZM503.7,97.3l-113.8-48.7L499.2,5.3c7.2,2,69.2,24.2,113.6,40.4l-109.1,51.6h0Z"/>
  <polygon points="625.8 45.1 625.3 86.4 625.3 91.7 625.2 101.9 621.8 411.8 621.8 415.1 619.4 416.2 503.8 469.7 380.2 416.7 377.7 415.6 377.7 48.5 382.7 48.5 382.7 412.3 501.2 463.1 503.7 464.2 506.2 463 526.9 453.5 531.9 451.2 603.4 418.1 608.4 415.8 616.8 411.9 620.3 88.2 620.4 84.6 620.8 47.4 620.8 45 625.8 45.1"/>
  <path d="M1101.5,260.6l-476.2-174.2-5-1.8v3.7l-.2,11.9,5,1.8,457,168.1,5.2,1.9,1.1.4,12.5-6.7,5.9-3.1-5.4-2h.1ZM1088.1,266.9l-462.9-170.2v-4.9l469.4,171.7-6.5,3.5h0Z"/>
  <path d="M1124,267.8h0l-22.5-7.2-1-.3-5.9,3.1-6.5,3.5-5.9,3.2-17.4,9.3h0v3.1l16.1,7.8,2.5-1.3,35.7-18.5,5-2.6h0ZM1080.7,284.6l-8-3.9,15.7-8.4,12.5-6.7,10,3.2-30.3,15.7h.1Z"/>
  <rect x="377.7" y="97.2" width="5" height="12.8"/>
  <path d="M377.7,95.5L12.1,238.7h0l19.7,7.8,5-1.9L377.7,113.7l3.4-1.3,1.6-.6v-18.2s-5,1.9-5,1.9ZM377.7,108.3L31.8,241.1l-6.6-2.6L377.7,100.9v7.4Z"/>
  <path d="M51.3,250.9l-14.6-6.3-18.9-8.1-5.8,2.3L.1,243.8h-.1l5,2.6,30.5,15.4.9.4,14.9-8.6v-2.7h0ZM37.6,257.2l-1.8-.9-24-12.1,5.8-2.5,27.1,11.7-3,1.8-4.1,2Z"/>
  <path d="M54.2,606.5l-.9-105.4h0v-5.6h0v-5.4h0l-1.9-236.6v-2.7l-11.9,6.5h0l-2.2,1.7-1.6,2.6,3.1,346.5-33.3-15.5-.3-346.4v-2.6H0l.3,350.6v1.6l1.4.6,41.8,19.4h0c0,0,0,0,0,0h0l3.1-2.2,4.6-3.2,2.8-1.9v-2.3l.2.3ZM43.7,610l-3.2-350,5.8-3.5,2.8,349.7-5.5,3.8h.1Z"/>
  <polygon points="921.8 531.4 920 536.1 914.6 533.9 619.4 416.2 618.4 415.8 620.2 411.2 621.8 411.8 920.8 531 921.8 531.4"/>
  <polygon points="1068.8 516.7 1067.3 521 1067.2 521.4 1065.5 520.8 1065.3 520.8 1001.7 499 889.8 551 959.3 571.6 962.1 572.5 962 575.9 960 695.3 959.9 699.8 954.9 699.7 955 696.1 957 576.2 885.3 554.9 885.3 554.9 880.3 553.4 880.3 549.9 885.3 547.6 914.6 533.9 920.8 531 1001.4 493.6 1065.2 515.5 1068.8 516.7"/>
  <polygon points="1069.3 635.2 957.6 702.6 881.6 671.7 880.3 553.4 880.3 549.9 880.3 549.9 885.3 547.6 885.3 547.6 885.3 554.9 886.6 668.3 955 696.1 957.2 697 960 695.3 1066.7 630.9 1069.3 635.2"/>
  <rect x="953.5" y="546.8" width="120.2" height="5" transform="translate(-137.7 489.9) rotate(-25.5)"/>
  <path d="M584,490.6"/>
  <path d="M291.2,607.4"/>
  <polygon points="238.4 524.5 238.4 527.6 233.4 529.9 168.9 558.6 169.2 661.6 169.2 665.6 164.2 665.6 164.2 661.7 163.9 555.3 230.1 525.9 116.3 468.3 51.7 496.3 49.7 491.7 116.5 462.8 117.5 463.3 238.4 524.5"/>
  <polygon points="238.4 524.5 238.4 636.7 166.4 668.3 49.6 609.8 51.8 605.3 164.2 661.7 166.5 662.8 169.2 661.6 233.4 633.4 233.4 526 238.4 524.5"/>
  <rect x="106.2" y="461.7" width="5" height="130.4" transform="translate(-409.1 380.9) rotate(-62.6)"/>
  <rect x="180.5" y="456.1" width="209.5" height="5" transform="translate(-167.1 163.5) rotate(-25)"/>
  <path d="M24.4,236.2"/>
  <path d="M1119,267.8v2.6l-.3,336.8-34.7,22.7-.8-341v-3.3l-18.5-6.3h0v3.1l.5,233.1v11l.2,105.1v3.6l3,.4h0l5.4.7-448.5,270.9L46.8,613.9l-1-2.2-2.3,4.5,582,296.8,457-276,5.4-3.8h0l35.8-23.3.3-342.1h-5ZM1070.5,630.9l-2.4-346.7,10.2,5,.8,342.9-8.6-1.2h0Z"/>
  <rect x="501.2" y="100" width="5" height="366.9"/>
  <polygon points="531.9 455.1 526.9 455.1 526.9 219.6 612.3 176.8 608.4 419.8 603.4 419.7 607.2 185 531.9 222.7 531.9 455.1"/>
  <path d="M547.6,320c-3.5,0-6.4,2.9-6.4,6.4s2.9,6.4,6.4,6.4,6.4-2.9,6.4-6.4-2.9-6.4-6.4-6.4ZM547.6,330.8c-2.4,0-4.4-2-4.4-4.4s2-4.4,4.4-4.4,4.4,2,4.4,4.4-2,4.4-4.4,4.4Z"/>
  <polygon points="625.7 924.5 .3 606.4 .3 596 5.3 596 5.3 603.3 625.5 918.8 1118.8 620.4 1118.7 609.9 1123.7 609.9 1123.8 623.2 1122.6 624 625.7 924.5"/>
  <path d="M499.2,5.6l112.9,40.2-108.5,51.3-113.1-48.4L499.2,5.6M499.2,5.3l-109.3,43.3,113.8,48.7,109.1-51.6L499.2,5.3h0Z"/>
  <path d="M499.4,16l87.3,31-83.1,39.3-87.3-37.4,83.2-33M499.3,11.7l-93.7,37.1,97.9,41.9,93.5-44.2-97.8-34.8h0Z"/>
</svg>