<?xml version="1.0" encoding="UTF-8"?>
<svg id="Camada_1" xmlns="http://www.w3.org/2000/svg" version="1.1" viewBox="0 0 612.5 612.5">
  <!-- Generator: Adobe Illustrator 29.8.2, SVG Export Plug-In . SVG Version: 2.1.1 Build 3)  -->
  <defs>
    <style>
      .st0 {
        fill: #fff;
      }
    </style>
  </defs>
  <polygon class="st0" points="12.5 156.2 0 156.2 0 0 156.2 0 156.2 12.4 12.5 12.4 12.5 156.2"/>
  <rect class="st0" x="100" y="-35.2" width="12.5" height="282.8" transform="translate(-44 106.2) rotate(-45)"/>
  <polygon class="st0" points="612.5 156.2 600 156.2 600 12.4 456.2 12.4 456.2 0 612.5 0 612.5 156.2"/>
  <rect class="st0" x="364.8" y="100" width="282.8" height="12.5" transform="translate(73.2 389) rotate(-45)"/>
  <polygon class="st0" points="612.5 612.5 456.2 612.5 456.2 600 600 600 600 456.2 612.5 456.2 612.5 612.5"/>
  <rect class="st0" x="500" y="364.8" width="12.5" height="282.8" transform="translate(-209.7 506.2) rotate(-45)"/>
  <polygon class="st0" points="156.2 612.5 0 612.5 0 456.2 12.5 456.2 12.5 600 156.2 600 156.2 612.5"/>
  <rect class="st0" x="-35.2" y="500" width="282.8" height="12.5" transform="translate(-326.8 223.4) rotate(-45)"/>
</svg>