<?xml version="1.0" encoding="UTF-8"?>
<svg id="Camada_1" xmlns="http://www.w3.org/2000/svg" version="1.1" viewBox="0 0 535.5 666.5">
  <!-- Generator: Adobe Illustrator 29.8.2, SVG Export Plug-In . SVG Version: 2.1.1 Build 3)  -->
  <defs>
    <style>
      .st0 {
        fill: #292d32;
      }
    </style>
  </defs>
  <path class="st0" d="M376.3,666.5c-2,0-4.3-.3-6.3-1-67-19-137.3-19-204.3,0-12.3,3.3-25.3-3.7-28.7-16-3.7-12.3,3.7-25.3,16-28.7,75.3-21.3,154.7-21.3,230,0,12.3,3.7,19.7,16.3,16,28.7-3.3,10.3-12.7,17-22.7,17Z"/>
  <path class="st0" d="M508,145.3C473.3,75.3,406.3,23.6,328.7,6.6c-81.3-18-164.7,1.3-228.3,52.7C36.3,110.3,0,186.6,0,268.3s51.7,176.7,129.7,229v27.7c-.3,9.3-.7,23.7,10.7,35.3,11.7,12,29,13.3,42.7,13.3h171c18,0,31.7-5,41-14.3,12.7-13,12.3-29.7,12-38.7v-23.3c103.3-69.7,168.3-216.7,101-352ZM325,320.6l-35.7,62c-4.7,8-13,12.7-21.7,12.7s-8.7-1-12.3-3.3c-12-7-16-22.3-9.3-34l28.3-49.3h-28c-16.7,0-30.3-7.3-37.7-19.7-7.3-12.7-6.7-28,1.7-42.7l35.7-62c7-12,22.3-16,34-9.3,12,7,16,22.3,9.3,34l-28.3,49.3h28c16.7,0,30.3,7.3,37.7,19.7,7.3,12.7,6.7,28.3-1.7,42.7Z"/>
</svg>