<?xml version="1.0" encoding="UTF-8"?>
<svg id="Camada_1" xmlns="http://www.w3.org/2000/svg" version="1.1" viewBox="0 0 578.1 675.5">
  <!-- Generator: Adobe Illustrator 29.8.2, SVG Export Plug-In . SVG Version: 2.1.1 Build 3)  -->
  <defs>
    <style>
      .st0 {
        fill: #fff;
      }
    </style>
  </defs>
  <path class="st0" d="M409,87.2L99,397.2c-15.7,15.7-43,12.3-53-7.7-18-35.7-28-74.7-28-112.3,0-81.7,36.3-158,100-209.3C181.6,16.5,265-2.5,346.6,15.5c18,4,35.7,9.7,52.3,17.3,21.3,9.7,26.7,37.7,10,54.3h.1Z"/>
  <path class="st0" d="M400.6,629.8c-75.3-21.3-154.7-21.3-230,0-12.3,3.7-19.7,16.3-16,28.7,3.7,12.3,16.3,19.3,28.7,16,67-19,137.3-19,204.3,0,2,.7,4.3,1,6.3,1,10,0,19.3-6.7,22.3-17,3.7-12.3-3.3-25-15.7-28.7h.1Z"/>
  <path class="st0" d="M570.9,7.2c-9.7-9.7-25.7-9.7-35.3,0L7.2,535.6c-9.7,9.7-9.7,25.7,0,35.3,5,5,11.3,7.3,17.7,7.3s12.7-2.3,17.7-7.3l82-82c7.3,6,15,12,23,17.3v27.7c-.3,9.3-.7,23.7,10.3,35.3,11.7,11.7,29,13.3,42.7,13.3h171c18,0,31.7-5,41-14.3,13-13.3,12.3-30,12-38.7v-23.3c103.7-69.7,168.7-216.7,101.3-352-7.3-14.3-16.3-28-26.3-40.7l71-71c10-9.7,10-25.7.3-35.3h0Z"/>
</svg>