<?xml version="1.0" encoding="UTF-8"?>
<svg id="Camada_1" xmlns="http://www.w3.org/2000/svg" version="1.1" viewBox="0 0 421 325.3">
  <!-- Generator: Adobe Illustrator 29.8.2, SVG Export Plug-In . SVG Version: 2.1.1 Build 3)  -->
  <defs>
    <style>
      .st0 {
        fill: #fff;
      }
    </style>
  </defs>
  <g>
    <polygon class="st0" points="134 162.7 134 175.1 191.1 175.1 191.1 113.3 177.7 113.3 177.7 105.3 199.1 105.3 199.1 175.1 267.3 175.1 259.3 183.1 126 183.1 126 162.7 134 162.7"/>
    <polygon class="st0" points="390.2 0 390.2 61.1 382.2 61.1 382.2 8 199.1 8 199.1 60.5 177.7 60.5 177.7 52.5 191.1 52.5 191.1 8 8 8 8 174.2 69.1 174.2 69.1 163.2 77.1 163.2 77.1 182.2 8 182.2 8 317.3 161.8 317.3 161.8 308.9 169.8 308.9 169.8 325.3 0 325.3 0 0 390.2 0"/>
    <polygon class="st0" points="382.2 113.3 390.2 113.3 390.2 325.3 218.7 325.3 218.7 305.7 226.7 305.7 226.7 317.3 382.2 317.3 382.2 183.1 324.6 183.1 332.6 175.1 382.2 175.1 382.2 113.3"/>
  </g>
  <path class="st0" d="M418.9,77.9c-2.1-3-21.9-20.9-24-23.1-3.5-3.5-12.2,5.3-12,5.1l-125,124.5-69.4,70.1c-4.2,5.5-25.6,46.9-27.1,52.9-1,4,3.8,7.5,7.7,6.2,17.8-7.9,35.5-16.3,52.3-26.2l102-103,36.1-35.1.6-.6,31-31c19.6-18.9,21.8-19.5,27.8-28.8,2.6-4,2.7-7.1,0-11ZM170,305.7c-.2-.3,7.1-14.6,7.1-14.6l7.4,7.2s-14.2,7.8-14.5,7.4ZM188.4,295.6l-8.7-8.7c0-1.7,11.6-21.4,12.7-21.4l18.5,19c-3.2,2.8-18.2,10.8-22.5,11.2ZM380.5,115.4l-163.6,162.6-20-20.1,163.6-163.4c.9-.2,1.3.5,1.9.9,1.9,1.3,16.2,15.6,17.5,17.5.6.9,1.4,1.4.5,2.5ZM387.4,108.4l-20.4-20.5,7.4-8.5,20.4,20.6-7.4,8.3ZM401.4,94.4l-20.4-20.6c-.2-1.1,8.5-10,9.6-10.2,1.4-.4,1.8.1,2.8.8,1.7,1.1,18.2,17.4,18.4,18.7l-10.4,11.3Z"/>
</svg>