<?xml version="1.0" encoding="UTF-8"?>
<svg id="Camada_1" xmlns="http://www.w3.org/2000/svg" version="1.1" viewBox="0 0 321.9 521.7">
  <!-- Generator: Adobe Illustrator 29.8.2, SVG Export Plug-In . SVG Version: 2.1.1 Build 3)  -->
  <defs>
    <style>
      .st0 {
        fill: #fff;
      }
    </style>
  </defs>
  <path class="st0" d="M61,521.7c-17.7,0-34.8-7.8-46.4-21.4C0,483.2,0,462.3,0,420.7V101.1C0,59.4,0,38.5,14.6,21.4,27.3,6.6,46.4-1.3,65.8.2c22.4,1.8,37.2,16.6,66.7,46l159.8,159.8c13.3,13.3,22.1,22.1,26.6,36,4,12.3,4,25.4,0,37.7-4.5,13.9-13.3,22.7-26.6,36l-159.8,159.8c-29.5,29.5-44.3,44.3-66.7,46-1.6,0-3.2.2-4.8.2h0ZM68.1,461.7h0ZM66.9,75.2c-.2,7.5-.2,16.8-.2,25.9v319.6c0,9.1,0,18.4.2,25.9,5.5-5.2,12-11.7,18.5-18.2l159.8-159.8c2.6-2.6,5.4-5.4,7.6-7.7-2.2-2.3-5-5.1-7.6-7.7L85.3,93.3c-6.4-6.4-13-13-18.5-18.2h0ZM256.7,265.3h0ZM256.7,256.4h0ZM55.3,65.3h0ZM68.1,60h0Z"/>
</svg>