<?xml version="1.0" encoding="UTF-8"?>
<svg id="Camada_1" xmlns="http://www.w3.org/2000/svg" version="1.1" viewBox="0 0 1088.2 1444.1">
  <!-- Generator: Adobe Illustrator 29.8.2, SVG Export Plug-In . SVG Version: 2.1.1 Build 3)  -->
  <defs>
    <style>
      .st0 {
        stroke: #fff;
      }

      .st0, .st1 {
        fill: none;
        stroke-miterlimit: 10;
        stroke-width: 5px;
      }

      .st1 {
        stroke: #00dbff;
      }

      .st2 {
        fill: #00dbff;
      }
    </style>
  </defs>
  <path class="st2" d="M-6131.3,1649.6h0Z"/>
  <g>
    <path class="st1" d="M469.6,152l43.1,20.3L492.4,4l-151.8,87.2,42.9,20.2s-51.9,190-81.1,280.8l167.2-240.2h0Z"/>
    <path class="st1" d="M175.3,814.3l-29.4,109,39,24.7-153,86.1L3.2,862.1l43.1,17.3s73.8-105.1,84.7-122.4c12-18.9,20-33.1,35.1-55.1l52.4-78.8-15,79.5-28.2,111.7h0Z"/>
    <path class="st0" d="M1084.5,1441.6h-385.9l-28.8-68.7-1.7-5.3-3.2-7.2c-12-19.1-19.3-33.2-19.3-33.2l-3.9-7.8-4.3-10.3c-4.8-16.6-13.5-34.1-21.2-50-41.6-85.9-46.4-78-119.5-130.4-22.5-16.2-44.2-36.1-66.9-53-24.8-18.5-64-39.8-84.7-60.2-14.4-14.2-29.1-37.9-43.6-53.9-20.7-22.8-99.3-88-105.5-109.4-6.4-22.1-4.8-46.9-13.8-71.2-7-18.8-48.9-71.6-45.8-86.8.6-3.2,5.2-9.8,7.6-12.6,41-46.5,118.4,14.4,139.1,55.9,5.8,11.7,9.9,34.5,17,43,7.2,8.7,38.2,22,50.7,33.6l10.1,7.1,10.2,9,6.3,6.7c2,2,15.4,13.6,27.8,18.5,44.4,17.7,80-14.2,79.6-57.8-.2-19.3-4.8-27.1-4.8-27.1l-2.9-8.2-3.1-9.4s-10-25.6-11.4-28c-5.4-9-24.5-70.2-28.1-83.7-8.7-33.1-1.1-64.9,38.2-64.4,3-2.9-20.2-70.1-22.8-80.9-4.2-17.6-4.1-36.2-10.4-53.4-14.3-8.8-29.6-15.7-43.6-25.1-12.2-8.3-26.2-23.7-37.2-30.2-20.3-11.9-32.7-5.6-50.8-29.1-11-14.4-20.1-47.2-11.3-63.6,8.6-16,75.3-2.7,92.4,0,39,6,53.5,12.3,89.8,25.1,40.8,14.4,69.2,10.8,88.2,56.7,19.4,47.1,27.7,105,45.5,154.4,3.7,10.1,19.9,53.8,27.5,57.5l93.5,3.9c12.4-.4,32.8,16.7,41.1,18.5,9.7,2,23.5-3.2,38.9,1.4,15.5,4.6,23.6,17.3,33.1,22.4,15,7.9,36.7,6.2,49.3,22.6,16.7,21.7,13.8,51,16.4,76.1,11.8,115.4,19.6,231.4,33.1,346.7,40,122.9,94.1,241.2,139.2,361.8h0Z"/>
  </g>
</svg>