<?xml version="1.0" encoding="UTF-8"?>
<svg id="Camada_1" xmlns="http://www.w3.org/2000/svg" version="1.1" xmlns:xlink="http://www.w3.org/1999/xlink" viewBox="0 0 281.4 125.9">
  <!-- Generator: Adobe Illustrator 29.8.2, SVG Export Plug-In . SVG Version: 2.1.1 Build 3)  -->
  <defs>
    <style>
      .st0 {
        fill: url(#Gradiente_sem_nome_135);
      }

      .st1 {
        fill: url(#Gradiente_sem_nome_23);
      }

      .st2 {
        fill: url(#Gradiente_sem_nome_13);
      }

      .st3 {
        fill: url(#Gradiente_sem_nome_131);
      }

      .st4 {
        fill: url(#Gradiente_sem_nome_133);
      }

      .st5 {
        fill: url(#Gradiente_sem_nome_132);
      }

      .st6 {
        fill: url(#Gradiente_sem_nome_232);
      }

      .st7 {
        fill: url(#Gradiente_sem_nome_231);
      }

      .st8 {
        fill: url(#Gradiente_sem_nome_134);
      }

      .st9 {
        fill: url(#Gradiente_sem_nome_233);
      }
    </style>
    <linearGradient id="Gradiente_sem_nome_13" data-name="Gradiente sem nome 13" x1="0" y1="76.4" x2="39.1" y2="76.4" gradientUnits="userSpaceOnUse">
      <stop offset="0" stop-color="#015f60"/>
      <stop offset="1" stop-color="#005f60"/>
    </linearGradient>
    <linearGradient id="Gradiente_sem_nome_131" data-name="Gradiente sem nome 13" x1="43.9" y1="74.4" x2="60.6" y2="74.4" xlink:href="#Gradiente_sem_nome_13"/>
    <linearGradient id="Gradiente_sem_nome_132" data-name="Gradiente sem nome 13" x1="69" y1="85" x2="110.8" y2="85" xlink:href="#Gradiente_sem_nome_13"/>
    <linearGradient id="Gradiente_sem_nome_133" data-name="Gradiente sem nome 13" x1="117.4" y1="85.4" x2="156.8" y2="85.4" xlink:href="#Gradiente_sem_nome_13"/>
    <linearGradient id="Gradiente_sem_nome_134" data-name="Gradiente sem nome 13" x1="163.7" y1="95.1" x2="206.6" y2="95.1" xlink:href="#Gradiente_sem_nome_13"/>
    <linearGradient id="Gradiente_sem_nome_135" data-name="Gradiente sem nome 13" x1="181.9" y1="42.3" x2="279" y2="42.3" xlink:href="#Gradiente_sem_nome_13"/>
    <linearGradient id="Gradiente_sem_nome_23" data-name="Gradiente sem nome 23" x1="218.1" y1="78.4" x2="234" y2="78.4" gradientUnits="userSpaceOnUse">
      <stop offset="0" stop-color="#e25b0e"/>
      <stop offset="1" stop-color="#c05c1a"/>
    </linearGradient>
    <linearGradient id="Gradiente_sem_nome_231" data-name="Gradiente sem nome 23" x1="178.1" y1="23.7" x2="190.6" y2="23.7" xlink:href="#Gradiente_sem_nome_23"/>
    <linearGradient id="Gradiente_sem_nome_232" data-name="Gradiente sem nome 23" x1="274.3" y1="3.4" x2="281.4" y2="3.4" xlink:href="#Gradiente_sem_nome_23"/>
    <linearGradient id="Gradiente_sem_nome_233" data-name="Gradiente sem nome 23" x1="212.5" y1="36.8" x2="223.7" y2="36.8" xlink:href="#Gradiente_sem_nome_23"/>
  </defs>
  <g>
    <path class="st2" d="M0,105.6v-58.3h39.1l-.7,14.2H15.5v10.7h20v13.4H15.5v20H0Z"/>
    <path class="st3" d="M43.9,51.9c0-2.7.8-4.8,2.4-6.4,1.6-1.6,3.7-2.4,6.2-2.4s2.1.2,3,.6c1,.4,1.8.9,2.6,1.7.7.7,1.3,1.6,1.8,2.5.4.9.7,2,.7,3.2,0,2.7-.8,4.8-2.4,6.3-1.6,1.6-3.7,2.3-6.2,2.3s-2.1-.2-3.1-.6c-1-.4-1.9-.9-2.6-1.6-.7-.7-1.3-1.5-1.8-2.5-.4-.9-.7-2-.7-3.2ZM44.6,65.6l15.4-.9v40.9h-15.4v-40Z"/>
    <path class="st5" d="M82.6,64.3l1,6.9c1.7-1.9,3.9-3.5,6.5-4.9,2.6-1.4,5.4-2,8.4-2s6.9,1.1,9.1,3.4c2.2,2.2,3.2,5.8,3.2,10.7v27.2h-15.4v-24.2c0-3.7-1.2-5.5-3.6-5.5s-3.1.4-4.2,1.2c-1.2.8-2.2,1.6-3.2,2.6v25.9h-15.4v-40.3l13.7-.9Z"/>
    <path class="st4" d="M138,64.4c3.3,0,6.2.5,8.6,1.6,2.4,1.1,4.3,2.5,5.8,4.3,1.5,1.8,2.6,3.9,3.3,6.4.7,2.4,1.1,5.1,1.1,7.8v4.6h-23.6c.3,1.9,1.1,3.4,2.6,4.5,1.4,1,3.4,1.5,5.7,1.5s4-.2,5.8-.7c1.8-.4,3.6-1,5.3-1.7l3.2,10.1c-2.3,1.2-4.9,2.1-7.6,2.7-2.7.6-5.9.9-9.4.9s-6-.4-8.6-1.2c-2.6-.8-4.9-2.1-6.8-3.7-1.9-1.7-3.4-3.7-4.5-6.2-1.1-2.5-1.6-5.3-1.6-8.5s.4-6.2,1.3-8.9c.9-2.7,2.2-5.1,3.9-7,1.7-2,3.9-3.5,6.5-4.6,2.6-1.1,5.6-1.7,9-1.7ZM141.8,80.8c0-1.9-.3-3.5-.8-4.9-.6-1.4-1.6-2-3.2-2s-1.4.2-2,.6c-.5.4-1,1-1.3,1.6-.3.7-.6,1.4-.7,2.2-.2.8-.3,1.6-.3,2.5h8.3Z"/>
    <path class="st8" d="M163.7,125.9v-60.6l13.7-.9,1,6.6c1.6-1.8,3.4-3.3,5.5-4.6,2.1-1.3,4.6-2,7.6-2,4.6,0,8.2,1.7,11,5.1,2.8,3.4,4.2,8.5,4.2,15.3s-.5,6.7-1.5,9.4c-1,2.7-2.2,5-3.8,6.8-1.6,1.8-3.4,3.2-5.5,4.1-2.1.9-4.2,1.4-6.3,1.4s-5.1-.5-6.7-1.5c-1.6-1-2.9-2.3-4.2-4.1l.4,11.1v13.2l-15.4.8ZM179.1,93.2c1.4,1.2,3.1,1.8,5.2,1.8s3-.8,4.3-2.4c1.3-1.6,2-4.1,2-7.6s-.5-5.7-1.6-7c-1.1-1.4-2.4-2-3.9-2-2.2,0-4.2.9-6,2.7v14.5Z"/>
  </g>
  <path class="st0" d="M181.9,22.6l43.9,59.3L279,2.7l-97.1,19.9ZM271.6,6.4s0,0,0,0l-54.2,29.6-27.3-11.9,81.5-17.8ZM188.6,27.3l28.9,10.5,4.5,31.7-33.4-42.2ZM219.5,37.7l54.6-31.1c0,0,.2,0,.1.1l-47.2,65.7-7.6-34.7Z"/>
  <g>
    <circle class="st1" cx="226" cy="78.4" r="8"/>
    <path class="st7" d="M190.6,23.7c0-3.3-2.8-6-6.3-6s-6.3,2.7-6.3,6,2.8,6,6.3,6,6.3-2.7,6.3-6Z"/>
    <path class="st6" d="M281.4,3.4c0-1.9-1.6-3.4-3.6-3.4s-3.6,1.5-3.6,3.4,1.6,3.4,3.6,3.4,3.6-1.5,3.6-3.4Z"/>
    <path class="st9" d="M223.7,36.8c0-3-2.5-5.4-5.6-5.4s-5.6,2.4-5.6,5.4,2.5,5.4,5.6,5.4,5.6-2.4,5.6-5.4Z"/>
  </g>
</svg>