<?xml version="1.0" encoding="UTF-8"?>
<svg id="Camada_1" xmlns="http://www.w3.org/2000/svg" version="1.1" viewBox="0 0 502.2 96.3">
  <!-- Generator: Adobe Illustrator 29.8.2, SVG Export Plug-In . SVG Version: 2.1.1 Build 3)  -->
  <defs>
    <style>
      .st0 {
        fill: #f51c1c;
      }

      .st1 {
        fill: #f7f7f7;
      }
    </style>
  </defs>
  <path class="st0" d="M126.1,47.6l-43.9,46.2c-1.7,1.8-3.9,3.1-6.7,2.3-1.2-.6-6.6-5-3.3-10.6l46.6-34.4v-.2s-7.9,4.4-7.9,4.4l-53.4,23.6c-8.8,2-13.2-9.9-4.6-13.5,11.2-4.7,44.9-12.4,58-14.9,2.3-.4,4.7-1.1,7.1-1.5,0,0,.2,0,.3,0-.1,0-.2,0-.3,0-33.2,4.2-78,5.2-110.8,7.8,0,0-3.8-.1-5.9-3.6s-.9-8,0-10c2.1-3.5,6-3.5,6-3.5,0,0,56.6,2.1,84.6,4.6,1.8.2,18.7,1.5,26,2l-66.3-15.8c-5.8-3.5-3.1-13,3.2-13.4l63.4,27.2L72.6,11.1c-4.1-5.5.4-9.9,3.6-11.1h.2c3,0,5.9,1.2,8,3.4l41.7,44.2Z"/>
  <path class="st0" d="M118.2,48.8c0,0-.2,0-.3,0h0c.1,0,.2,0,.3,0Z"/>
  <path class="st1" d="M348.2,21l1.1,3.3,16.9,25.7v-27.5c0-.1,1.4-1.5,1.5-1.5h16.5v54h-18c-5.5-10.4-11.8-20.6-19-30v30h-17V21h18Z"/>
  <path class="st1" d="M235.2,21v21h15v-21h16.5c.1,0,1.5,1.4,1.5,1.5v51c0,.1-1.4,1.5-1.5,1.5h-16.5v-21h-15v21h-18V21h18Z"/>
  <path class="st1" d="M423.2,21v54h-16.5c-.1,0-1.5-1.4-1.5-1.5V22.5c0-.1,1.4-1.5,1.5-1.5h16.5Z"/>
  <rect class="st1" x="290.2" y="21" width="17" height="54"/>
  <path class="st1" d="M482.7,22c-2.3-2.3-14.3-.2-18.1-1l-21.5,54.1h18c.5,0,1.2-8.1,3.6-8.9,1-.3,15.7-.5,16.8-.2,1.5.9,2.1,9.1,2.6,9.1h18l-19.5-53ZM477.2,53h-9s4-14,4-14c1.4-1.1,5.9,13.1,5,14Z"/>
  <path class="st1" d="M187.9,23.8c-1.4-.8-7-2.8-8.2-2.8h-29.5v54h17v-16h15.5c.4,0,6-2.6,6.8-3.2,10.6-7,9.5-26-1.6-32ZM166.2,45v-10c19.4-3.3,19.4,13.3,0,10Z"/>
</svg>