<?xml version="1.0" encoding="UTF-8"?>
<svg id="Camada_1" xmlns="http://www.w3.org/2000/svg" version="1.1" xmlns:xlink="http://www.w3.org/1999/xlink" viewBox="0 0 250 345.2">
  <!-- Generator: Adobe Illustrator 29.8.2, SVG Export Plug-In . SVG Version: 2.1.1 Build 3)  -->
  <defs>
    <style>
      .st0 {
        fill: none;
        stroke: #000;
        stroke-miterlimit: 10;
      }

      .st1 {
        fill: url(#Gradiente_sem_nome_258);
      }

      .st2 {
        font-family: Mofita, Möfita;
        font-size: 55.8px;
      }
    </style>
    <linearGradient id="Gradiente_sem_nome_258" data-name="Gradiente sem nome 258" x1="189.6" y1="181.7" x2="10.1" y2="160.3" gradientUnits="userSpaceOnUse">
      <stop offset="0" stop-color="#000087"/>
      <stop offset="1" stop-color="#0079ae"/>
    </linearGradient>
  </defs>
  <text class="st2" transform="translate(93.1 45.1)"><tspan x="0" y="0">The</tspan></text>
  <g>
    <g>
      <path d="M.7,320.2c0-8.8,6.7-15.6,16.1-15.6s16.3,6.5,16.3,15.5-6.5,15.6-16,15.6-16.3-6.5-16.3-15.4ZM27.5,321.1c0-7.4-3.9-14.8-11.1-14.8s-10.2,5.5-10.2,12.8,3.9,14.8,11.1,14.8,10.1-5.4,10.1-12.8Z"/>
      <path d="M56.8,328.3c-.3,2.3-.3,4.6,0,7-3.6-.3-6.9-.3-9.7-.3s-7.8,0-10.6.3v-.3c2.4-.5,3.4-1.3,3.5-3.7.2-3.9.2-6.4.2-11.1s0-7.4-.3-11.2c-.1-2.1-1.1-3.1-3.5-3.6v-.3c2.1.1,4.4.3,6.3.3s4.2-.1,6.3-.3v.3c-2.5.5-3.4,1.5-3.5,3.6-.3,4.3-.3,6.4-.3,11.2s0,8,.2,9.8c.2,3,2.7,3.2,5.2,3.2,3.6,0,5.1-1,5.9-4.9h.3Z"/>
      <path d="M74.3,305.3c-2.5.5-3.4,1.5-3.5,3.7-.3,4.2-.3,6.3-.3,11.1s0,6.9.3,11.1c.1,2.1,1.1,3.2,3.5,3.7v.3c-2.1-.1-4.4-.3-6.3-.3s-4.2.1-6.3.3v-.3c2.4-.5,3.4-1.5,3.5-3.7.3-3.8.3-6.8.3-11.1s0-7.4-.3-11.1c-.1-2.1-1.1-3.2-3.5-3.7v-.3c2.1.1,4.4.3,6.3.3s4.2-.1,6.3-.3v.3Z"/>
    </g>
    <g>
      <path d="M116.7,319.6c0,8.4-6.2,15.6-16.2,15.6s-4.7-.3-7.2-.3-5.4.1-6.7.3v-.3c2.6-.5,3.3-1.3,3.5-3.6.1-2.3.2-5.7.2-11.2s0-8.9-.2-11.3c-.1-2.5-1.1-3.1-3.5-3.6v-.3c1.5.1,4,.3,5.6.3,2.3,0,4.5-.3,7-.3,10.8,0,17.6,5.7,17.6,14.5ZM111.1,320.6c0-6.8-3.3-14-12.4-14s-2,0-3,.2c-.3,5.9-.3,9.2-.3,13.7s0,7.4.2,9.2c.3,3,2.7,3.8,5.4,3.8,6.8,0,10.1-6.2,10.1-12.9Z"/>
      <path d="M140.5,328.3c-.3,2.3-.3,4.6,0,7-3.6-.3-6.9-.3-9.7-.3s-7.8,0-10.6.3v-.3c2.4-.5,3.4-1.3,3.5-3.7.2-3.9.2-6.4.2-11.1s0-7.2-.3-11c-.1-2.1-1.1-3.4-3.5-3.8v-.3c2.9.1,6.7.3,10.6.3s7.1-.1,9.5-.3c-.2,1.6-.3,4.3,0,6.4h-.3c-.7-3.6-2.5-4.7-6.4-4.7s-2.4,0-4.4.2c-.2,5.7-.3,8.3-.3,11.8,1,0,2.3,0,4.4,0,3.1-.1,3.6-1.3,4-3.2h.3c-.1,1.4-.3,2.8-.3,4s0,2.6.3,3.9h-.3c-.5-2.2-.8-3-4-3.1-1.5,0-2.9-.1-4.4-.1,0,4.7,0,7.9.2,9.8.2,3,2.7,3.2,5.1,3.2,3.6,0,5.1-1,5.9-4.9h.3Z"/>
      <path d="M146,333.2c.2-1.9.2-3.7,0-5.6h.3c.8,4.1,3.7,6.3,7,6.3s5.2-1.6,5.2-4.6c0-6.7-11.9-9.1-11.9-17.1s4.7-7.5,9.4-7.5,4.4.7,5.8,1.5c-.2,1.6-.3,3.7,0,5.2h-.3c-.7-3.5-2.8-4.9-5.3-4.9s-4.6,1.8-4.6,4c0,5.9,11.9,8.4,11.9,16.8s-4.4,8.5-10,8.5-6.1-1.4-7.5-2.5Z"/>
      <path d="M181.2,305.3c-2.5.5-3.4,1.5-3.5,3.7-.3,4.2-.3,6.3-.3,11.1s0,6.9.3,11.1c.1,2.1,1.1,3.2,3.5,3.7v.3c-2.1-.1-4.4-.3-6.3-.3s-4.2.1-6.3.3v-.3c2.4-.5,3.4-1.5,3.5-3.7.3-3.8.3-6.8.3-11.1s0-7.4-.3-11.1c-.1-2.1-1.1-3.2-3.5-3.7v-.3c2.1.1,4.4.3,6.3.3s4.2-.1,6.3-.3v.3Z"/>
      <path d="M216.4,305.1v.3c-2.1.5-3.2,1.3-3.4,3.7-.2,3.3-.2,6.1-.2,10.4s0,11,0,16.3h0c-7.2-7.1-14.5-14-22.1-20.8v5c0,4.7,0,7.8.3,11.4.1,2.4,1.3,3.3,3.4,3.8v.3c-2.1-.2-3.7-.3-5-.3s-2.6,0-4.7.3v-.3c2.1-.5,3.2-1.3,3.4-3.7.2-3.6.2-6.8.2-11.4s0-10.4,0-15.3h0c7.4,7.2,14.7,14.2,22.1,20.8v-6.4c0-4.1,0-6.8-.3-10-.1-2.4-1.3-3.2-3.4-3.7v-.3c2.1.2,3.6.3,4.9.3s2.7,0,4.8-.3Z"/>
      <path d="M250,321.3v.3c-2,.4-2.9,1.2-3.1,3.4-.3,2.5-.3,5,0,8.9-2.2.8-6.2,1.8-10.1,1.8-10.1,0-16.8-6.6-16.8-15.5s7-15.5,16.8-15.5,7,.9,9.3,1.8c-.3,2.2-.3,4.3,0,6.5h-.3c-1.5-4.7-4.8-6.5-8.9-6.5-7.5,0-11.3,5.9-11.3,12.7s3.2,14.8,11.8,14.8,2.9-.3,4.2-.8c0-3.8,0-5.5-.3-8.2-.2-2.2-1.2-3-3.9-3.4v-.3c2.3.2,4.4.3,6.5.3s4.4,0,6.2-.3Z"/>
    </g>
    <g>
      <line class="st0" y1="296.2" x2="75.1" y2="296.2"/>
      <line class="st0" y1="345.2" x2="75.1" y2="345.2"/>
    </g>
    <g>
      <line class="st0" x1="87.2" y1="296.2" x2="249.3" y2="296.2"/>
      <line class="st0" x1="87.2" y1="345.2" x2="249.3" y2="345.2"/>
    </g>
  </g>
  <g>
    <path d="M235.4,82.9c-11.9,2.6-16.1,7.4-16.7,17.7-1.2,20.3-1.4,30.2-1.4,53.5s.2,33.2,1.4,53.5c.6,10.3,5.2,15.3,16.7,17.7v1.2c-10.1-.6-21.1-1.2-30.4-1.2s-20.1.6-30.4,1.2v-1.2c11.7-2.4,16.3-7.4,16.9-17.7,1.2-18.1,1.2-32.6,1.2-53.5s0-35.4-1.2-53.5c-.6-10.3-5.2-15.3-16.9-17.7v-1.2c10.3.6,21.3,1.2,30.4,1.2s20.3-.6,30.4-1.2v1.2Z"/>
    <path class="st1" d="M149.2,240.1c3.8-3.4,7.4-6.9,10.5-10.8,3.2-3.8,6-7.9,8.4-12.2,2.4-4.3,4.5-8.7,6.2-13.2,1.7-4.6,2.9-9.2,3.7-14,1.7-9.4,1.7-19.1.1-28.4-1.6-9.3-4.6-18.2-9.3-26.3-2.3-4-5-7.8-7.9-11.4-2.9-3.5-6.1-6.9-9.6-9.9-7-6-14.9-10.7-23.5-13.8-8.5-3.2-17.5-4.9-26.6-5-9.1-.1-18.1,1.4-26.6,4.5-8.5,2.9-16.5,7.4-23.6,13.2-7,5.8-12.9,12.9-17.6,20.6-4.7,7.8-7.9,16.5-9.6,25.5-.8,4.5-1.2,9.1-1.3,13.7,0,4.6.2,9.2,1,13.8.7,4.6,1.9,9.1,3.4,13.5,1.6,4.4,3.5,8.7,5.8,12.8,2.3,4.1,4.9,8.1,7.9,11.7,3,3.7,6.4,7.1,10,10.3,7.2,6.4,15.6,11.4,24.8,15,4.6,1.8,9.3,3.2,14.2,4.2,4.9,1.1,9.9,1.6,14.9,1.9v1c-10.1.5-20.4-.7-30.2-3.7-9.7-3.1-19-7.8-27.1-14.1-8.1-6.3-15.1-13.9-20.5-22.6-5.4-8.7-9.2-18.4-11.3-28.4-4-20.1-.7-41.6,9.5-59.4,5.1-8.9,11.7-16.9,19.6-23.5,7.9-6.6,16.9-11.8,26.6-15.2,19.4-6.8,41.2-6.4,60.3,1.2,9.5,3.8,18.4,9.3,26,16.2,7.6,6.9,14,15.1,18.7,24.2,9.5,18.2,12.1,39.8,7.3,59.7-2.4,10-6.6,19.5-12.4,27.9-2.9,4.2-6.1,8.2-9.7,11.9-3.6,3.7-7.5,7-11.6,10l-.6-.8Z"/>
    <path d="M197.5,242.7c-1.2,11.1-1.2,21.9,0,33.4-17.1-1.2-33.2-1.4-46.4-1.4s-37.4.2-51.1,1.2v-1.2c11.5-2.4,16.3-6.2,16.9-17.9,1-18.7,1-30.6,1-53.3s0-35.6-1.2-53.7c-.6-10.3-5.2-15.1-16.9-17.5v-1.2c10.3.6,21.3,1.2,30.4,1.2s20.3-.6,30.4-1.2v1.2c-11.9,2.4-16.1,7.2-16.7,17.3-1.2,20.5-1.4,30.6-1.4,53.9s.2,38.2.8,47c.8,14.5,13.1,15.5,24.7,15.5,17.1,0,24.3-4.8,28.3-23.5l1.2.2Z"/>
  </g>
</svg>